<svg xmlns="http://www.w3.org/2000/svg" viewBox="0 0 24 24" height="128" width="128"><defs></defs><title>3d-print-triangle-1</title><path d="M11.5,20.5h-9a2,2,0,0,1-2-2V2.5a2,2,0,0,1,2-2h16a2,2,0,0,1,2,2v10" fill="none" stroke="#1035f2" stroke-linecap="round" stroke-linejoin="round"></path><line x1="14" y1="6.5" x2="20.5" y2="6.5" fill="none" stroke="#1035f2" stroke-linecap="round" stroke-linejoin="round"></line><line x1="0.5" y1="6.5" x2="5" y2="6.5" fill="none" stroke="#1035f2" stroke-linecap="round" stroke-linejoin="round"></line><path d="M8,4.5a1,1,0,0,0-1,1V7L8.5,9.5,10,7V5.5a1,1,0,0,0-1-1Z" fill="none" stroke="#1035f2" stroke-linecap="round" stroke-linejoin="round"></path><path d="M9,4.5h4.5a1,1,0,0,0,1-1V.5" fill="none" stroke="#1035f2" stroke-linecap="round" stroke-linejoin="round"></path><line x1="6.5" y1="10.75" x2="5.75" y2="10" fill="none" stroke="#1035f2" stroke-linecap="round" stroke-linejoin="round"></line><line x1="5.5" y1="12.25" x2="4.5" y2="12.25" fill="none" stroke="#1035f2" stroke-linecap="round" stroke-linejoin="round"></line><line x1="10.5" y1="10.75" x2="11.25" y2="10" fill="none" stroke="#1035f2" stroke-linecap="round" stroke-linejoin="round"></line><line x1="11.5" y1="12.25" x2="12.5" y2="12.25" fill="none" stroke="#1035f2" stroke-linecap="round" stroke-linejoin="round"></line><polygon points="5.375 16.5 8.5 11.5 11.625 16.5 5.375 16.5" fill="none" stroke="#1035f2" stroke-linecap="round" stroke-linejoin="round"></polygon><line x1="4" y1="18.5" x2="11.5" y2="18.5" fill="none" stroke="#1035f2" stroke-linecap="round" stroke-linejoin="round"></line><path d="M20.5,17.5a3,3,0,0,1,0,6Z" fill="none" stroke="#1035f2" stroke-linecap="round" stroke-linejoin="round"></path><path d="M15,23.5h1.5a1.5,1.5,0,0,0,0-3,1.5,1.5,0,0,0,0-3H15" fill="none" stroke="#1035f2" stroke-linecap="round" stroke-linejoin="round"></path><line x1="16" y1="20.5" x2="16.5" y2="20.5" fill="none" stroke="#1035f2" stroke-linecap="round" stroke-linejoin="round"></line></svg>